<svg xmlns="http://www.w3.org/2000/svg" xmlns:xlink="http://www.w3.org/1999/xlink" viewBox="0 0 488.05 119.39"><defs><style>.cls-1{fill:#231f20;}.cls-2,.cls-3,.cls-4{fill:none;stroke-linecap:round;stroke-linejoin:round;stroke-width:2px;}.cls-2{stroke:url(#linear-gradient);}.cls-3{stroke:url(#linear-gradient-2);}.cls-4{stroke:url(#linear-gradient-3);}</style><linearGradient id="linear-gradient" y1="118.39" x2="488.05" y2="118.39" gradientUnits="userSpaceOnUse"><stop offset="0" stop-color="#231f20" stop-opacity="0"/><stop offset="0.11" stop-color="#231f20" stop-opacity="0.31"/><stop offset="0.33" stop-color="#231f20" stop-opacity="0.82"/><stop offset="0.5" stop-color="#231f20"/><stop offset="0.66" stop-color="#231f20" stop-opacity="0.83"/><stop offset="0.89" stop-color="#231f20" stop-opacity="0.34"/><stop offset="1" stop-color="#231f20" stop-opacity="0"/></linearGradient><linearGradient id="linear-gradient-2" x1="0" y1="113.28" x2="488.05" y2="113.28" xlink:href="#linear-gradient"/><linearGradient id="linear-gradient-3" x1="111.18" y1="12.18" x2="170.16" y2="71.16" xlink:href="#linear-gradient"/></defs><g id="Layer_2" data-name="Layer 2"><g id="Logo_Fill" data-name="Logo Fill"><path class="cls-1" d="M4.3,83.6a3,3,0,0,1-2.22-.91,3,3,0,0,1-.91-2.22V5.39a2.83,2.83,0,0,1,2.1-3,2.91,2.91,0,0,1,3.53,1L59.07,71.31V5.39A3.11,3.11,0,0,1,62.2,2.26a3.15,3.15,0,0,1,2.22.91,3.06,3.06,0,0,1,.91,2.22V80.47A3.19,3.19,0,0,1,62.2,83.6a3.06,3.06,0,0,1-2.5-1.2L7.43,14.55V80.47A3.11,3.11,0,0,1,4.3,83.6Z"/><path class="cls-1" d="M256.68,83.6A39.34,39.34,0,0,1,227.9,71.71,39.31,39.31,0,0,1,216,42.93,39.29,39.29,0,0,1,227.9,14.15a40.78,40.78,0,0,1,57.56,0,3.15,3.15,0,0,1,0,4.43,3.16,3.16,0,0,1-4.44,0,34.48,34.48,0,0,0-48.68,0,33.16,33.16,0,0,0-10.07,24.35,33.12,33.12,0,0,0,10.07,24.34,34.43,34.43,0,0,0,47.77.86V46.06h-25a3.14,3.14,0,0,1-2.22-5.35,3,3,0,0,1,2.22-.91h28.09a3.11,3.11,0,0,1,3.13,3.13V69.49a3.13,3.13,0,0,1-.91,2.22A39.34,39.34,0,0,1,256.68,83.6Z"/><path class="cls-1" d="M392.71,82.17a2.93,2.93,0,0,1-2.62,1.43H349.43a3.14,3.14,0,0,1-2.22-5.35,3,3,0,0,1,2.22-.91h35.89L357.27,13.18l-30,68.54a3.09,3.09,0,0,1-4.15,1.59,2.91,2.91,0,0,1-1.65-1.7,3,3,0,0,1,.06-2.39L354.37,4.14a3,3,0,0,1,2.9-1.88,2.86,2.86,0,0,1,2.85,1.88L393,79.22A2.84,2.84,0,0,1,392.71,82.17Z"/><path class="cls-1" d="M465.15,77.34A15.64,15.64,0,0,0,480.79,61.7a15.62,15.62,0,0,0-15.64-15.64h-14.9a21.1,21.1,0,0,1-15.47-6.43,21.08,21.08,0,0,1-6.43-15.47,21.06,21.06,0,0,1,6.43-15.47,21.06,21.06,0,0,1,15.47-6.43h14.9a20.93,20.93,0,0,1,15.47,6.43,21.06,21.06,0,0,1,6.43,15.47,3,3,0,0,1-.91,2.22,3.06,3.06,0,0,1-2.22.91,3.19,3.19,0,0,1-2.22-.91,3.06,3.06,0,0,1-.91-2.22A15.54,15.54,0,0,0,465.15,8.52h-14.9a15,15,0,0,0-11,4.55,15.09,15.09,0,0,0-4.61,11.09,14.89,14.89,0,0,0,4.61,11,14.93,14.93,0,0,0,11,4.61h14.9a20.93,20.93,0,0,1,15.47,6.43,21.06,21.06,0,0,1,6.43,15.47,22,22,0,0,1-21.9,21.9h-14.9a22,22,0,0,1-21.9-21.9,3.14,3.14,0,0,1,5.35-2.22,3.06,3.06,0,0,1,.91,2.22,15.74,15.74,0,0,0,15.64,15.64Z"/></g><g id="Logo_Stroke" data-name="Logo Stroke"><line class="cls-2" x1="1" y1="118.39" x2="487.05" y2="118.39"/><line class="cls-3" x1="1" y1="113.28" x2="487.05" y2="113.28"/><path class="cls-4" d="M140.67,1a39.31,39.31,0,0,1,28.78,11.89,39.33,39.33,0,0,1,11.89,28.78,39.34,39.34,0,0,1-11.89,28.78,40.78,40.78,0,0,1-57.56,0A39.31,39.31,0,0,1,100,41.67a39.29,39.29,0,0,1,11.89-28.78A39.31,39.31,0,0,1,140.67,1Zm0,75.08A33.29,33.29,0,0,0,165,66a33.25,33.25,0,0,0,10.07-24.34A33.27,33.27,0,0,0,165,17.32a34.49,34.49,0,0,0-48.69,0,33.3,33.3,0,0,0-10.06,24.35A33.28,33.28,0,0,0,116.32,66,33.31,33.31,0,0,0,140.67,76.08Z"/></g></g></svg>