<?xml version="1.0" encoding="utf-8"?>
<!-- Generator: Adobe Illustrator 16.0.0, SVG Export Plug-In . SVG Version: 6.00 Build 0)  -->
<!DOCTYPE svg PUBLIC "-//W3C//DTD SVG 1.1//EN" "http://www.w3.org/Graphics/SVG/1.1/DTD/svg11.dtd">
<svg version="1.1" id="Layer_1" xmlns="http://www.w3.org/2000/svg" xmlns:xlink="http://www.w3.org/1999/xlink" x="0px" y="0px"
	 width="567.797px" height="513.473px" viewBox="23.071 137.498 567.797 513.473"
	 enable-background="new 23.071 137.498 567.797 513.473" xml:space="preserve">
<title>Artboard 1</title>
<g id="Navagation_Bar">
	<g id="Logos">
		<path d="M535.801,141.367h54.596c0,3.287,0.47,6.575,0.47,9.862c0,144.493,0,289.005,0,433.536
			c0.048,11.126-0.796,22.237-2.524,33.228c-3.229,19.607-13.972,30.351-34.519,31.76c-21.494,1.624-43.081,1.624-64.575,0
			c-21.839-1.82-32.522-13.679-35.224-34.46c-1.268-9.321-1.935-18.714-1.996-28.12c0-145.745,0-291.49,0-437.235v-8.454h58.705
			v11.271c0,140.892,0,281.687,0,422.383c0,4.344,0,8.688,0,12.974c0,8.219,5.049,11.741,13.15,11.389s11.741-3.815,11.741-11.741
			c0-4.638,0-9.275,0-13.913c0-139.874,0-279.729,0-419.564L535.801,141.367z"/>
		<path d="M274.622,339.555h-54.126c0-4.168,0-7.808,0-11.448c0-41.445,0-82.911,0-124.396c0-5.871,0-11.741-8.16-13.854
			c-10.508-2.348-16.202,1.467-17.024,11.741c0,3.053,0,6.164,0,9.275c0,122.224,0,244.448,0,366.671c0,3.405,0,6.811,0,10.215
			c0.293,7.926,4.403,11.741,12.915,11.741s12.152-4.285,12.152-12.211c0-49.508,0-99.016,0-148.523c0-3.64,0-7.221,0-11.33h53.833
			c0,3.053,0.411,5.87,0.411,8.453c0,51.074,0,102.089,0,153.162c-0.074,9.189-0.721,18.365-1.937,27.474
			c-2.583,19.666-13.737,31.583-34.284,32.992c-21.494,1.638-43.082,1.638-64.576,0c-21.78-1.819-32.347-13.736-35.223-34.577
			c-1.038-6.724-1.626-13.51-1.761-20.312c0-133.691,0-267.363,0-401.015c0.133-6.805,0.741-13.592,1.82-20.312
			c3.111-22.132,15.439-33.756,41.094-35.223c19.727-1.062,39.505-0.669,59.175,1.174c17.322,0.252,31.744,13.365,33.638,30.585
			c1.301,6.676,2.008,13.453,2.113,20.253C274.681,239.581,274.622,289.069,274.622,339.555z"/>
		<path d="M439.349,647.757h-58.705l-4.932-67.863h-32.874l-4.051,67.452h-52.248l36.339-505.92h80.073L439.349,647.757z
			 M359.979,218.388c-4.109,91.697-8.688,216.211-12.739,307.908h25.537C368.257,434.129,364.382,309.733,359.979,218.388z"/>
		<path d="M80.719,595.861h43.148v51.602H23.071V141.308h57.648V595.861z"/>
	</g>
</g>
</svg>
