<?xml version="1.0" encoding="UTF-8"?><svg id="Layer_1" xmlns="http://www.w3.org/2000/svg" viewBox="0 0 710.81 162.17"><path d="M362.64,84.96c15,7.32,14.27,19.74,12.34,32.35-1.28,8.38-3.22,16.66-4.85,24.99-1.01,5.18-1.31,10.11,2.35,14.71,2.14,2.69,.68,5.02-2.95,5.06-10.16,.1-20.33-.05-30.49,.07-4.08,.05-4.3-2.79-4.03-5.38,.91-8.92,2.11-17.8,3.29-26.69,.74-5.6,2.1-11.16,2.36-16.77,.38-8.29-3.42-12.93-11.82-13.85-8.41-.92-16.94-.82-25.42-1.05-4.83-.13-9.67,.11-14.49-.06-3.36-.12-4.99,.93-5.72,4.54-3.68,18.27-7.78,36.45-11.47,54.71-.71,3.51-2.12,4.66-5.61,4.58-9.28-.2-18.57-.07-28.59-.07,1.51-7.24,2.83-13.71,4.2-20.17,9.7-45.74,19.42-91.47,29.05-137.22,.71-3.35,2.15-4.65,5.69-4.62,27.32,.19,54.64,.14,81.97,.32,3.79,.03,7.65,.61,11.36,1.46,16.61,3.79,27.45,18.66,26.05,35.85-1.76,21.67-11.95,37.7-33.21,47.25Zm-72.52-13.92c16.58,0,32.1,.97,47.44-.28,14.5-1.18,22.54-11.49,23.09-26.08,.31-8.35-4.1-14.65-12.37-15.39-11.07-.99-22.24-.93-33.37-1.08-5.1-.07-11.71-1.41-14.89,1.19-3.2,2.61-3.14,9.36-4.24,14.36-1.96,8.89-3.71,17.82-5.66,27.28Z"/><path d="M440.13,132.58h89.16c-2.11,9.88-3.93,18.94-6.12,27.91-.2,.82-2.72,1.51-4.17,1.53-10,.13-20,.07-30,.07-27.33,0-54.66,0-81.99,0-1.95,0-3.89,0-6.4,0,.33-2.39,.46-4.02,.79-5.6,10.53-49.83,21.14-99.64,31.54-149.5C433.99,1.93,435.74-.05,441.34,0c35.16,.3,70.33,.15,105.49,.16,1.96,0,3.92,.16,6.57,.28-1.9,8.93-3.49,17.4-5.7,25.69-.35,1.31-3.48,2.65-5.33,2.66-24.66,.18-49.33,.26-73.99,0-5.08-.05-7.36,1.2-8.17,6.52-1.36,8.99-3.62,17.85-5.64,27.43,2.54,.17,4.45,.41,6.37,.41,22,.03,44,0,66,.03,5.97,0,6.04,.15,4.85,5.89-1.19,5.7-2.53,11.38-3.51,17.12-.64,3.75-2.25,5.11-6.25,5.07-22.5-.21-45,.04-67.49-.21-4.81-.05-6.64,1.39-7.45,6.17-1.7,10-4.15,19.87-6.25,29.8-.33,1.58-.42,3.22-.71,5.55Z"/><path d="M0,162.06c2.52-11.99,4.83-23.04,7.17-34.08C15.7,87.77,24.26,47.56,32.77,7.34,34.29,.17,34.23,.15,41.72,.15c21.16,0,42.33-.19,63.49,.1,6.43,.09,13,.83,19.22,2.38,14.64,3.65,23.64,13.5,24.55,28.53,1.18,19.51-3.55,37.86-16.25,53.19-10.27,12.4-24.66,17.45-40.18,18.63-13.26,1.01-26.63,1.02-39.94,.8-5.37-.09-7.12,1.85-8.07,6.72-3.09,15.84-6.52,31.62-10.03,47.38-.35,1.55-2.04,3.97-3.17,4-10.12,.31-20.26,.18-31.35,.18ZM52.35,75.15c2.15,.19,3.6,.43,5.05,.44,8.98,.03,17.97,.1,26.95-.02,19.58-.26,28.11-11.81,30.24-28.65,1.26-9.93-3.28-16.61-13.24-17.61-12.19-1.23-24.54-.89-36.83-.91-1.04,0-2.71,2.2-3.04,3.62-2.5,10.85-4.75,21.75-7.05,32.65-.71,3.35-1.34,6.71-2.1,10.49Z"/><path d="M679.55,162.08c-13.52,0-26.16,.13-38.79-.19-1.35-.03-3.26-2.46-3.87-4.15-5.19-14.4-10.12-28.9-15.16-43.36-.69-1.99-1.51-3.94-2.59-6.71-2,2.34-3.52,4.03-4.94,5.8-12.19,15.2-24.33,30.45-36.6,45.58-1.12,1.38-3.1,2.87-4.71,2.91-11.97,.24-23.94,.13-36.99,.13,1.55-2.1,2.5-3.55,3.61-4.86,20.5-24.32,40.94-48.7,61.63-72.86,3.17-3.7,3.52-6.65,1.64-11.08-9.42-22.22-18.49-44.59-27.66-66.91-.73-1.79-1.29-3.65-2.17-6.14,13.22,0,25.69-.11,38.14,.18,1.23,.03,2.96,2.36,3.52,3.95,4.77,13.67,9.31,27.42,13.95,41.13,.63,1.86,1.39,3.67,2.45,6.45,5.13-6.53,9.73-12.37,14.3-18.23,7.78-9.99,15.61-19.93,23.24-30.03,1.9-2.51,3.87-3.64,7.06-3.59,11.25,.17,22.51,.06,35.2,.06-5.98,7.14-11.02,13.23-16.13,19.27-15.5,18.3-30.95,36.64-46.6,54.82-2.59,3-2.69,5.48-1.22,8.96,10.15,24.08,20.12,48.24,30.14,72.37,.75,1.82,1.44,3.67,2.55,6.51Z"/><path d="M160.05,113.22c1.88-8.73,3.71-17.63,5.82-26.47,.23-.97,2.03-2.23,3.1-2.23,19.62-.09,39.25,0,58.88,.06,.29,0,.59,.27,1.42,.68-1.89,8.74-3.73,17.65-5.84,26.49-.23,.98-2.02,2.25-3.09,2.25-19.62,.09-39.25,0-58.88-.06-.29,0-.58-.28-1.42-.72Z"/></svg>